 <svg width="151" height="130" viewBox="0 0 151 130" fill="none" xmlns="http://www.w3.org/2000/svg">
<path d="M50.6968 81.1959C53.6608 81.7239 54.0808 85.9399 51.1288 87.0519L53.2448 90.4759C50.2968 90.9119 51.0328 86.1919 47.5568 87.1839V90.4799H46.3608V81.1999C47.6848 81.3599 49.4488 80.9759 50.7008 81.1999L50.6968 81.1959ZM47.5488 85.9879C49.1248 85.9239 51.8288 86.5599 51.9488 84.2919C52.0768 81.8679 49.1768 82.4079 47.5488 82.3919V85.9879Z" fill="white"/>
<path d="M118.957 81.1959C121.921 81.7239 122.341 85.9399 119.389 87.0519L121.505 90.4759C118.557 90.9119 119.293 86.1919 115.817 87.1839V90.4799H114.621V81.1999C115.945 81.3599 117.709 80.9759 118.961 81.1999L118.957 81.1959ZM115.813 85.9879C117.389 85.9239 120.093 86.5599 120.213 84.2919C120.341 81.8679 117.441 82.4079 115.813 82.3919V85.9879Z" fill="white"/>
<path d="M107.133 81.1962V82.3962H102.641V85.0922L106.701 85.3722L106.833 86.2882H102.641V89.2802H107.133V90.4802H101.445V81.1962H107.133Z" fill="white"/>
<path d="M38.8683 84.488C37.6403 84.692 37.5683 83.488 36.6963 82.924C30.8043 79.116 28.6363 90 34.7923 89.568C37.2443 89.396 37.1603 87.192 39.1683 87.188C36.8723 93.464 27.7643 90.368 30.2483 83.804C31.6963 79.984 38.3163 80.264 38.8683 84.488Z" fill="white"/>
<path d="M64.5882 81.2279L68.2082 90.4759L67.0602 90.4239L65.9162 88.4279L61.5922 88.5639L60.9882 90.4399L59.5242 90.4719L63.2642 81.4919L64.5842 81.2239L64.5882 81.2279ZM65.5122 87.1839C65.6842 87.0199 64.3482 83.2559 63.7202 82.9959L62.2202 87.1839H65.5122Z" fill="white"/>
<path d="M80.4846 81.1962V82.3962H76.2926V85.3922L80.0526 85.6722L80.1846 86.5842H76.2926V90.4802H75.0966V81.1962H80.4846Z" fill="white"/>
<path d="M94.2564 81.1962L94.2604 82.3922L91.2644 82.3962V90.4802H90.0644V82.3962L87.0724 82.3922V81.1962H94.2564Z" fill="white"/>
<path d="M98.1483 40.1844L88.2083 42.0644C84.6243 43.0564 81.0082 44.3724 79.2242 47.8964L72.0002 47.9764C68.2443 41.3644 59.5002 41.7324 52.9362 40.3284C60.2202 39.2004 69.3363 39.2244 72.7523 31.4004C74.6163 27.1324 74.8483 22.2684 75.5443 17.7204C76.9202 24.3884 76.6523 33.5564 83.6643 37.1484C87.8963 39.3164 93.4762 39.6604 98.1483 40.1844Z" fill="white"/>
<path d="M34.6766 53.0519H39.9166C40.9366 53.0519 41.5366 55.1759 41.2686 56.0439C43.0526 53.6039 46.5366 51.2519 49.0006 54.1439L46.4806 59.0239C45.5246 59.3159 45.3246 57.5759 44.0446 57.3039C42.2446 56.9199 41.4486 57.7679 41.2606 59.4839C41.0606 61.3079 41.0926 65.1319 41.2526 66.9919C41.3206 67.7879 41.4206 68.2519 41.8646 68.9239H28.8406C28.5646 68.9239 27.7206 67.5719 27.7886 67.1279C26.3086 67.4519 25.3046 68.9599 23.7326 69.2039C18.8006 69.9719 17.3806 65.0559 19.8766 61.4559C21.6686 58.8719 24.6846 58.0239 27.5006 57.1039C28.4686 54.8359 27.0886 53.6639 24.7806 54.3839C23.1926 54.8799 21.2846 58.9399 20.1646 58.7439C19.1486 56.4919 19.2846 54.4279 21.8126 53.5119C25.9286 52.0199 32.8486 52.9199 33.7086 58.0639C33.9086 59.2599 33.3646 68.6279 34.5286 68.6159C34.9086 68.3319 35.0446 67.8759 35.1446 67.4399C35.6006 65.4759 35.5006 57.5519 35.2766 55.2959C35.1926 54.4439 34.7806 53.8559 34.6766 53.0519ZM26.8126 58.7919C23.7806 59.2119 22.6766 65.9639 25.9526 66.3759C28.9206 66.7479 27.7166 60.9399 27.7446 59.2399L27.3086 58.7559C27.1366 58.6999 26.9806 58.7679 26.8126 58.7919Z" fill="white"/>
<path d="M60.5766 68.9238C59.9006 68.7358 59.7046 67.4558 59.8286 66.8278L57.8326 68.5718C55.0966 70.2958 51.4806 68.5438 50.1966 65.8318C47.1646 59.4398 51.8046 48.7478 59.3766 54.5478C60.1046 54.3918 60.2766 49.2798 58.6326 49.0078V48.7158C58.7086 48.3558 64.5446 45.7318 65.4806 46.2038C65.6686 46.6158 65.7726 47.0598 65.8166 47.5118C66.4126 53.7558 65.1526 61.0958 65.8086 67.2838C65.8806 67.9678 66.0886 68.3558 66.4126 68.9238H60.5726H60.5766ZM58.8406 66.1358C60.2246 64.9878 60.1326 57.4918 59.1886 55.9398C58.3166 54.5078 56.6726 55.4198 55.9806 56.5438C54.9726 58.1838 55.0646 62.2998 55.4046 64.2118C55.6726 65.7278 57.4326 67.3038 58.8406 66.1358Z" fill="white"/>
<path d="M18.2085 64.132C17.3965 70.552 8.77654 70.636 5.33654 66.076C0.172541 59.232 7.97254 49.336 15.7285 53.888C18.5565 55.548 16.5605 57.012 14.6205 58.596C12.2445 60.536 13.1125 59.34 12.0605 57.856C11.0085 56.372 7.79654 54.068 6.56854 56.232C4.38454 60.08 11.4245 65.356 15.0205 65.22C16.3165 65.172 17.0165 64.216 18.2085 64.132Z" fill="white"/>
<path d="M112.673 53.052C114.025 53.34 114.193 54.892 114.025 56.044C116.649 52.856 121.413 50.78 123.009 56.044C123.581 56.46 124.765 54.444 125.129 54.128C126.637 52.824 129.033 52.36 130.777 53.512C134.017 55.644 130.873 65.668 133.181 68.92H125.697C126.873 67.04 127.085 59.232 126.129 57.56C125.233 55.992 123.533 57.368 123.317 58.912C123.069 60.7 123.097 65.444 123.289 67.284C123.361 67.968 123.569 68.356 123.893 68.924H116.709C116.789 68.18 117.221 67.808 117.317 66.988C117.525 65.224 117.521 60.656 117.317 58.888C116.985 56 114.425 56.504 114.045 59.22C113.665 61.936 113.857 66.364 114.617 68.924H107.433C107.757 68.356 107.965 67.968 108.037 67.284C108.333 64.488 108.321 58.096 108.045 55.288C107.949 54.332 107.641 53.908 107.433 53.056C108.965 53.276 111.261 52.756 112.673 53.056V53.052Z" fill="white"/>
<path d="M90.8886 53.8764C89.8646 54.7244 87.9326 53.7044 86.7726 53.6564L89.0286 55.4404C92.4886 60.0684 89.6126 66.2604 83.7806 66.5324C82.9246 67.4604 87.4246 68.3644 87.8766 68.5684C90.1646 69.6084 91.0846 71.4724 89.6006 73.7004C87.0326 77.5564 75.3566 76.0924 74.2646 71.9924C73.5326 69.2484 79.2606 67.1844 80.0526 68.3044C80.4006 69.7204 79.6886 70.7844 79.9566 72.2964C80.5686 75.7364 86.2846 74.8764 84.7446 70.2004C83.4406 66.2444 75.0646 67.0364 74.0326 60.8564C73.1886 55.8004 77.5766 52.8924 82.1646 52.7844C83.5086 52.7524 84.9846 53.3444 86.5606 52.9884C87.7486 52.7204 88.4606 51.0244 89.3326 50.9404C90.5526 50.7644 91.7526 53.1644 90.8886 53.8764ZM81.1686 54.3404C79.3366 55.8724 79.2886 64.4604 81.5126 65.9484C84.4406 67.9044 84.8046 60.1644 84.6726 58.5964C84.5406 57.0284 83.4686 52.4164 81.1686 54.3404Z" fill="white"/>
<path d="M101.293 68.9241L100.089 67.1241C98.8768 67.5841 98.2168 68.6681 96.8968 69.0161C90.1248 70.8081 89.3928 62.3121 95.2568 58.9921C96.6608 58.1961 99.2848 57.7681 100.073 57.2241C101.229 56.4241 100.285 54.4641 98.9928 54.1481C96.1888 53.4641 94.0528 59.1641 92.6248 58.7401C91.2928 56.2361 92.3368 54.1081 94.9968 53.3361C99.9128 51.9121 105.949 53.3521 106.537 59.1921C106.853 62.3521 105.889 65.9521 107.141 68.9201H101.301L101.293 68.9241ZM99.5568 58.8041C97.0968 59.4041 96.3608 61.9521 96.6808 64.2561C97.0808 67.1281 100.137 67.0641 100.525 64.5641C100.677 63.5921 100.733 59.5401 100.109 59.0081L99.5528 58.8041H99.5568Z" fill="white"/>
<path d="M138.269 61.7366C138.885 63.7886 142.789 65.2926 144.661 65.2246C146.065 65.1726 147.053 63.7006 147.833 64.5766C145.441 72.6806 133.429 69.3726 133.241 61.5886C133.089 55.4086 138.829 50.7686 144.653 53.7086C146.777 54.7806 148.145 57.6206 147.417 59.9566C147.185 60.7006 145.657 61.7366 145.009 61.7366H138.273H138.269ZM142.061 56.7486C140.165 54.7966 135.113 54.4446 135.941 58.5246C136.721 62.3606 145.905 60.7126 142.061 56.7486Z" fill="white"/>
</svg>