<svg width="31" height="31" viewBox="0 0 31 31" fill="none" xmlns="http://www.w3.org/2000/svg">
<path d="M9.24918 17.908C11.3903 17.908 13.1063 19.6406 13.1063 21.797V26.9737C13.1063 29.1148 11.3903 30.8611 9.24918 30.8611H4.11651C1.99055 30.8611 0.259418 29.1148 0.259418 26.9737V21.797C0.259418 19.6406 1.99055 17.908 4.11651 17.908H9.24918ZM26.7733 17.908C28.8992 17.908 30.6304 19.6406 30.6304 21.797V26.9737C30.6304 29.1148 28.8992 30.8611 26.7733 30.8611H21.6406C19.4995 30.8611 17.7835 29.1148 17.7835 26.9737V21.797C17.7835 19.6406 19.4995 17.908 21.6406 17.908H26.7733ZM9.24918 0.490784C11.3903 0.490784 13.1063 2.23711 13.1063 4.37977V9.55647C13.1063 11.7128 11.3903 13.4439 9.24918 13.4439H4.11651C1.99055 13.4439 0.259418 11.7128 0.259418 9.55647V4.37977C0.259418 2.23711 1.99055 0.490784 4.11651 0.490784H9.24918ZM26.7733 0.490784C28.8992 0.490784 30.6304 2.23711 30.6304 4.37977V9.55647C30.6304 11.7128 28.8992 13.4439 26.7733 13.4439H21.6406C19.4995 13.4439 17.7835 11.7128 17.7835 9.55647V4.37977C17.7835 2.23711 19.4995 0.490784 21.6406 0.490784H26.7733Z" fill="#EFF2F4"/>
</svg>
