<svg width="31" height="31" viewBox="0 0 31 31" fill="none" xmlns="http://www.w3.org/2000/svg">
<path d="M22.5294 0.168954C24.7139 0.0324263 26.868 0.790912 28.4912 2.27754C29.9778 3.9007 30.7363 6.0548 30.6149 8.25441V22.4229C30.7515 24.6225 29.9778 26.7766 28.5063 28.3998C26.8832 29.8864 24.7139 30.6449 22.5294 30.5084H8.36079C6.16116 30.6449 4.00705 29.8864 2.38387 28.3998C0.897229 26.7766 0.138737 24.6225 0.275266 22.4229V8.25441C0.138737 6.0548 0.897229 3.9007 2.38387 2.27754C4.00705 0.790912 6.16116 0.0324263 8.36079 0.168954H22.5294ZM22.135 7.10151C21.1945 6.16099 19.6775 6.16099 18.737 7.10151L17.7206 8.13305C17.5689 8.28475 17.5689 8.54264 17.7206 8.69433C17.7206 8.69433 17.7504 8.72392 17.8034 8.77661L18.1765 9.14771C18.3923 9.36246 18.6617 9.63064 18.9323 9.90032L19.8496 10.8172C20.041 11.0095 20.168 11.1383 20.1781 11.1518C20.345 11.3339 20.4511 11.5766 20.4511 11.8496C20.4511 12.3957 20.0112 12.8508 19.4499 12.8508C19.192 12.8508 18.9493 12.7446 18.7825 12.5778L16.2491 10.0596C16.1277 9.93825 15.9154 9.93825 15.794 10.0596L8.55799 17.2956C8.05739 17.7962 7.76916 18.4636 7.75399 19.1766L7.66298 22.7718C7.66298 22.969 7.72365 23.1511 7.86018 23.2876C7.99671 23.4241 8.17875 23.5 8.37596 23.5H11.9409C12.669 23.5 13.3668 23.2118 13.8978 22.696L24.1071 12.4564C25.0324 11.5159 25.0324 9.99893 24.1071 9.07358L22.135 7.10151Z" fill="white"/>
</svg>
