<svg width="29" height="31" viewBox="0 0 29 31" fill="none" xmlns="http://www.w3.org/2000/svg">
<path d="M10.094 28.6564V24.0131C10.094 22.8278 11.0619 21.867 12.2559 21.867H16.6205C17.1938 21.867 17.7437 22.0931 18.1491 22.4956C18.5546 22.898 18.7823 23.4439 18.7823 24.0131V28.6564C18.7787 29.1492 18.9734 29.623 19.3231 29.9727C19.6728 30.3225 20.1487 30.5191 20.6451 30.5191H23.6228C25.0135 30.5227 26.3484 29.9768 27.3331 29.0018C28.3177 28.0269 28.8711 26.703 28.8711 25.3224V12.0945C28.8711 10.9793 28.3731 9.92142 27.5114 9.20592L17.3819 1.17466C15.6198 -0.233492 13.0952 -0.188027 11.3857 1.28264L1.48728 9.20592C0.584859 9.90032 0.0454908 10.9613 0.018837 12.0945V25.3089C0.018837 28.1864 2.3686 30.5191 5.26718 30.5191H8.17688C9.20787 30.5191 10.0458 29.6934 10.0532 28.6699L10.094 28.6564Z" fill="#EFF2F4"/>
</svg>
