<svg width="33" height="34" viewBox="0 0 33 34" fill="none" xmlns="http://www.w3.org/2000/svg">
<path d="M23.5537 29.2987L29.2874 23.6062L27.5549 21.8737L23.5537 25.7925L21.9449 24.1837L20.2124 25.9575L23.5537 29.2987ZM4.94991 10.7362H24.7499V7.43624H4.94991V10.7362ZM24.7499 33.8362C22.4674 33.8362 20.5221 33.0316 18.9139 31.4223C17.3057 29.813 16.501 27.8676 16.4999 25.5862C16.4988 23.3048 17.3035 21.3595 18.9139 19.7502C20.5243 18.1409 22.4696 17.3362 24.7499 17.3362C27.0302 17.3362 28.9761 18.1409 30.5876 19.7502C32.1991 21.3595 33.0032 23.3048 32.9999 25.5862C32.9966 27.8676 32.192 29.8135 30.586 31.4239C28.98 33.0343 27.0346 33.8384 24.7499 33.8362ZM-8.39233e-05 32.1862V4.13624C-8.39233e-05 3.22874 0.323316 2.45214 0.970116 1.80644C1.61692 1.16074 2.39352 0.837343 3.29992 0.836243H26.3999C27.3074 0.836243 28.0846 1.15964 28.7314 1.80644C29.3782 2.45324 29.701 3.22984 29.6999 4.13624V15.15C28.9299 14.765 28.1253 14.4828 27.286 14.3035C26.4467 14.1242 25.6013 14.0351 24.7499 14.0362H4.94991V17.3362H16.6649C16.1974 17.8037 15.7646 18.3125 15.3664 18.8625C14.9682 19.4125 14.6173 20.0037 14.3137 20.6362H4.94991V23.9362H13.3237C13.2687 24.2112 13.2346 24.4796 13.2214 24.7414C13.2082 25.0032 13.201 25.2848 13.1999 25.5862C13.1999 26.7412 13.3583 27.8484 13.6751 28.9077C13.9919 29.967 14.466 30.9773 15.0974 31.9387L14.8499 32.1862L12.3749 29.7112L9.89991 32.1862L7.42491 29.7112L4.94991 32.1862L2.47492 29.7112L-8.39233e-05 32.1862Z" fill="white"/>
</svg>
