<svg width="31" height="32" viewBox="0 0 31 32" fill="none" xmlns="http://www.w3.org/2000/svg">
<path d="M22.0261 0.815796C27.1728 0.815796 30.6304 4.42706 30.6304 9.80058V22.2018C30.6304 27.5753 27.1728 31.1866 22.0245 31.1866H8.8639C3.71713 31.1866 0.259571 27.5753 0.259571 22.2018V9.80058C0.259571 4.42706 3.71713 0.815796 8.8639 0.815796H22.0261ZM23.7007 16.8365C22.0729 15.821 20.8161 17.2471 20.4771 17.7031C20.1504 18.1435 19.8694 18.6293 19.5732 19.1151C18.8494 20.3139 18.0202 21.6961 16.5848 22.5001C14.4989 23.655 12.9154 22.591 11.7762 21.8168C11.3487 21.5284 10.9333 21.2558 10.5195 21.074C9.49948 20.6336 8.58175 21.1351 7.21965 22.8652C6.50501 23.7694 5.79648 24.6658 5.07879 25.5591C4.6497 26.0935 4.75201 26.9178 5.33074 27.2751C6.25458 27.8439 7.38152 28.1495 8.65504 28.1495H21.4529C22.1752 28.1495 22.899 28.0508 23.5892 27.8251C25.1437 27.3174 26.3775 26.1546 27.0219 24.6188C27.5655 23.3275 27.8297 21.7604 27.3212 20.4565C27.1517 20.024 26.8982 19.6213 26.5424 19.2671C25.6094 18.3409 24.7375 17.4759 23.7007 16.8365ZM10.1284 6.88996C8.03482 6.88996 6.33373 8.59335 6.33373 10.6863C6.33373 12.7793 8.03482 14.4827 10.1284 14.4827C12.2204 14.4827 13.923 12.7793 13.923 10.6863C13.923 8.59335 12.2204 6.88996 10.1284 6.88996Z" fill="#EFF2F4"/>
</svg>
