<svg width="29" height="31" viewBox="0 0 29 31" fill="none" xmlns="http://www.w3.org/2000/svg">
<path d="M15.534 0.153259C16.6823 0.153259 17.7221 0.791046 18.2963 1.73254C18.5756 2.1881 18.7619 2.74996 18.7153 3.34219C18.6843 3.79776 18.8239 4.25332 19.0722 4.67851C19.8637 5.96927 21.6173 6.4552 22.983 5.7263C24.5194 4.84555 26.4592 5.37704 27.3438 6.88039L28.3836 8.67227C29.2836 10.1756 28.787 12.1042 27.2352 12.9697C25.9161 13.7442 25.4505 15.4601 26.242 16.7661C26.4903 17.1761 26.7696 17.5254 27.2041 17.738C27.7473 18.0265 28.1663 18.482 28.4611 18.9376C29.0353 19.8791 28.9888 21.0332 28.4301 22.0506L27.3438 23.8729C26.7696 24.8447 25.6988 25.4521 24.597 25.4521C24.0538 25.4521 23.4486 25.3003 22.952 24.9966C22.5485 24.7384 22.0829 24.6473 21.5863 24.6473C20.0499 24.6473 18.7619 25.9077 18.7153 27.4111C18.7153 29.1574 17.2876 30.5241 15.5029 30.5241H13.3924C11.5922 30.5241 10.1644 29.1574 10.1644 27.4111C10.1334 25.9077 8.84533 24.6473 7.30897 24.6473C6.79685 24.6473 6.33128 24.7384 5.94331 24.9966C5.44671 25.3003 4.82595 25.4521 4.29831 25.4521C3.18096 25.4521 2.11016 24.8447 1.53596 23.8729L0.465162 22.0506C-0.109035 21.0636 -0.140073 19.8791 0.434124 18.9376C0.682425 18.482 1.14799 18.0265 1.67563 17.738C2.11016 17.5254 2.3895 17.1761 2.65332 16.7661C3.42926 15.4601 2.96369 13.7442 1.64459 12.9697C0.108228 12.1042 -0.388374 10.1756 0.496199 8.67227L1.53596 6.88039C2.43605 5.37704 4.36039 4.84555 5.91227 5.7263C7.26241 6.4552 9.01604 5.96927 9.8075 4.67851C10.0558 4.25332 10.1955 3.79776 10.1644 3.34219C10.1334 2.74996 10.3041 2.1881 10.599 1.73254C11.1732 0.791046 12.2129 0.18363 13.3458 0.153259H15.534ZM14.4632 11.0564C12.0267 11.0564 10.0558 12.9697 10.0558 15.3539C10.0558 17.738 12.0267 19.6361 14.4632 19.6361C16.8996 19.6361 18.8239 17.738 18.8239 15.3539C18.8239 12.9697 16.8996 11.0564 14.4632 11.0564Z" fill="#EFF2F4"/>
</svg>
