<svg width="37" height="38" viewBox="0 0 37 38" fill="none" xmlns="http://www.w3.org/2000/svg">
<path d="M13.1885 7.12372C14.2798 3.93005 18.6926 3.83332 19.9864 6.83355L20.0959 7.12555L21.5687 11.4324C21.9062 12.4202 22.4516 13.324 23.1681 14.0831C23.8847 14.8421 24.7556 15.4386 25.7223 15.8324L26.1183 15.9802L30.4252 17.4512C33.6189 18.5425 33.7156 22.9552 30.7172 24.2491L30.4252 24.3586L26.1183 25.8314C25.1302 26.1686 24.226 26.714 23.4667 27.4305C22.7073 28.147 22.1105 29.0181 21.7165 29.985L21.5687 30.3791L20.0978 34.6879C19.0064 37.8815 14.5937 37.9783 13.3016 34.9799L13.1885 34.6879L11.7176 30.381C11.3803 29.3929 10.835 28.4887 10.1184 27.7293C9.4019 26.97 8.53081 26.3732 7.56396 25.9792L7.16977 25.8314L2.86287 24.3604C-0.332625 23.2691 -0.429348 18.8564 2.57088 17.5643L2.86287 17.4512L7.16977 15.9802C8.1575 15.6427 9.06136 15.0973 9.82038 14.3808C10.5794 13.6643 11.1759 12.7933 11.5697 11.8266L11.7176 11.4324L13.1885 7.12372ZM31.2428 0.831269C31.5842 0.831268 31.9188 0.927039 32.2085 1.1077C32.4982 1.28836 32.7314 1.54666 32.8816 1.85324L32.9692 2.06676L33.6079 3.93917L35.4822 4.57791C35.8243 4.69415 36.1242 4.90935 36.344 5.19623C36.5637 5.48311 36.6933 5.82876 36.7163 6.18938C36.7394 6.55 36.6549 6.90934 36.4735 7.22188C36.2921 7.53442 36.0221 7.78607 35.6975 7.94495L35.4822 8.03255L33.6098 8.67128L32.971 10.5455C32.8546 10.8876 32.6392 11.1873 32.3522 11.4069C32.0652 11.6264 31.7195 11.7558 31.3589 11.7787C30.9983 11.8015 30.639 11.7169 30.3266 11.5353C30.0142 11.3538 29.7627 11.0836 29.604 10.759L29.5164 10.5455L28.8776 8.67311L27.0034 8.03437C26.6613 7.91813 26.3613 7.70293 26.1416 7.41605C25.9219 7.12917 25.7923 6.78352 25.7692 6.4229C25.7462 6.06228 25.8307 5.70294 26.0121 5.3904C26.1934 5.07786 26.4635 4.82621 26.7881 4.66733L27.0034 4.57973L28.8758 3.941L29.5145 2.06676C29.6376 1.7062 29.8704 1.39319 30.1804 1.17162C30.4903 0.950053 30.8618 0.83104 31.2428 0.831269Z" fill="white"/>
</svg>
